<mxfile host="65bd71144e">
    <diagram id="HwZ8HOKdH5jtUEhU10Nz" name="Page-1">
        <mxGraphModel dx="2511" dy="2592" grid="1" gridSize="10" guides="1" tooltips="1" connect="1" arrows="1" fold="1" page="1" pageScale="1" pageWidth="1100" pageHeight="850" math="0" shadow="0">
            <root>
                <mxCell id="0"/>
                <mxCell id="1" parent="0"/>
                <mxCell id="89" style="edgeStyle=none;html=1;exitX=0.5;exitY=1;exitDx=0;exitDy=0;entryX=0.5;entryY=0;entryDx=0;entryDy=0;fontFamily=Times New Roman;" parent="1" source="3" target="88" edge="1">
                    <mxGeometry relative="1" as="geometry"/>
                </mxCell>
                <mxCell id="3" value="Ir a HOME (mov:&amp;nbsp;&lt;span style=&quot;color: rgb(106, 153, 85); font-size: 14px;&quot;&gt;libre&lt;/span&gt;&lt;span style=&quot;&quot;&gt;)&lt;/span&gt;" style="shape=process;whiteSpace=wrap;html=1;backgroundOutline=1;fontFamily=Times New Roman;labelBackgroundColor=none;" parent="1" vertex="1">
                    <mxGeometry x="363" y="-110" width="120" height="60" as="geometry"/>
                </mxCell>
                <mxCell id="4" style="edgeStyle=none;html=1;exitX=0;exitY=0.5;exitDx=0;exitDy=0;entryX=1;entryY=0.5;entryDx=0;entryDy=0;fontFamily=Times New Roman;" parent="1" source="5" target="3" edge="1">
                    <mxGeometry relative="1" as="geometry"/>
                </mxCell>
                <mxCell id="5" value="&lt;div style=&quot;color: rgb(204, 204, 204); font-size: 14px; line-height: 19px;&quot;&gt;&lt;font color=&quot;#c2a54e&quot;&gt;calc_trayectorias&lt;/font&gt;()&lt;/div&gt;" style="shape=document;whiteSpace=wrap;html=1;boundedLbl=1;fontFamily=Times New Roman;labelBackgroundColor=none;" parent="1" vertex="1">
                    <mxGeometry x="583" y="-120" width="180" height="80" as="geometry"/>
                </mxCell>
                <mxCell id="6" style="edgeStyle=none;html=1;exitX=0.5;exitY=1;exitDx=0;exitDy=0;entryX=0.5;entryY=0;entryDx=0;entryDy=0;fontFamily=Times New Roman;" parent="1" source="7" target="3" edge="1">
                    <mxGeometry relative="1" as="geometry"/>
                </mxCell>
                <mxCell id="7" value="Obtener pos actual" style="shape=process;whiteSpace=wrap;html=1;backgroundOutline=1;fontFamily=Times New Roman;" parent="1" vertex="1">
                    <mxGeometry x="363" y="-200" width="120" height="60" as="geometry"/>
                </mxCell>
                <mxCell id="8" value="" style="edgeStyle=none;html=1;fontFamily=Times New Roman;" parent="1" source="9" target="7" edge="1">
                    <mxGeometry relative="1" as="geometry"/>
                </mxCell>
                <mxCell id="9" value="&lt;div style=&quot;color: rgb(204, 204, 204); font-size: 14px; line-height: 19px;&quot;&gt;&lt;font color=&quot;#c2a54e&quot;&gt;Delta_FK&lt;/font&gt;()&lt;/div&gt;" style="shape=document;whiteSpace=wrap;html=1;boundedLbl=1;fontFamily=Times New Roman;labelBackgroundColor=none;" parent="1" vertex="1">
                    <mxGeometry x="583" y="-210" width="180" height="80" as="geometry"/>
                </mxCell>
                <mxCell id="10" value="Módulo de Visión Artificial" style="swimlane;whiteSpace=wrap;html=1;fontFamily=Times New Roman;fillColor=#bac8d3;strokeColor=#23445d;" parent="1" vertex="1">
                    <mxGeometry x="198" y="230" width="450" height="490" as="geometry"/>
                </mxCell>
                <mxCell id="41" style="edgeStyle=none;html=1;exitX=0.5;exitY=1;exitDx=0;exitDy=0;entryX=0.5;entryY=0;entryDx=0;entryDy=0;fontFamily=Times New Roman;" parent="10" source="12" target="39" edge="1">
                    <mxGeometry relative="1" as="geometry"/>
                </mxCell>
                <mxCell id="12" value="Ir a inventario [i] - Z50mm (mov:&amp;nbsp;&lt;span style=&quot;color: rgb(106, 153, 85); font-size: 14px;&quot;&gt;approach&lt;/span&gt;&lt;span style=&quot;&quot;&gt;, herr:&amp;nbsp;&lt;/span&gt;&lt;span style=&quot;color: rgb(106, 153, 85); font-size: 14px;&quot;&gt;cam&lt;/span&gt;)" style="shape=process;whiteSpace=wrap;html=1;backgroundOutline=1;fontFamily=Times New Roman;labelBackgroundColor=none;" parent="10" vertex="1">
                    <mxGeometry x="122.5" y="60" width="205" height="50" as="geometry"/>
                </mxCell>
                <mxCell id="17" value="Ir a centro de PCB - Z500mm (mov:&amp;nbsp;&lt;span style=&quot;color: rgb(106, 153, 85); font-size: 14px;&quot;&gt;approach&lt;/span&gt;&lt;span style=&quot;&quot;&gt;, herr:&amp;nbsp;&lt;/span&gt;&lt;span style=&quot;color: rgb(106, 153, 85); font-size: 14px;&quot;&gt;cam&lt;/span&gt;)" style="shape=process;whiteSpace=wrap;html=1;backgroundOutline=1;fontFamily=Times New Roman;labelBackgroundColor=none;" parent="10" vertex="1">
                    <mxGeometry x="155" y="330" width="140" height="70" as="geometry"/>
                </mxCell>
                <mxCell id="36" style="edgeStyle=none;html=1;exitX=0;exitY=0.5;exitDx=0;exitDy=0;entryX=0.5;entryY=0;entryDx=0;entryDy=0;fontFamily=Times New Roman;" parent="10" source="33" target="12" edge="1">
                    <mxGeometry relative="1" as="geometry">
                        <Array as="points">
                            <mxPoint x="92" y="270"/>
                            <mxPoint x="92" y="40"/>
                            <mxPoint x="225" y="40"/>
                        </Array>
                    </mxGeometry>
                </mxCell>
                <mxCell id="37" value="SI" style="edgeLabel;html=1;align=center;verticalAlign=middle;resizable=0;points=[];fontFamily=Times New Roman;" parent="36" vertex="1" connectable="0">
                    <mxGeometry x="-0.7578" relative="1" as="geometry">
                        <mxPoint x="13" as="offset"/>
                    </mxGeometry>
                </mxCell>
                <mxCell id="45" style="edgeStyle=none;html=1;exitX=0.5;exitY=1;exitDx=0;exitDy=0;entryX=0.5;entryY=0;entryDx=0;entryDy=0;fontFamily=Times New Roman;" parent="10" source="33" target="17" edge="1">
                    <mxGeometry relative="1" as="geometry"/>
                </mxCell>
                <mxCell id="33" value="LOOP &lt;br&gt;(i=0; i&amp;lt;=n)" style="rhombus;whiteSpace=wrap;html=1;fontFamily=Times New Roman;" parent="10" vertex="1">
                    <mxGeometry x="185" y="230" width="80" height="80" as="geometry"/>
                </mxCell>
                <mxCell id="35" value="n = número de &lt;br&gt;componentes SMD" style="text;html=1;align=center;verticalAlign=middle;resizable=0;points=[];autosize=1;strokeColor=none;fillColor=none;fontFamily=Times New Roman;" parent="10" vertex="1">
                    <mxGeometry x="265" y="230" width="120" height="40" as="geometry"/>
                </mxCell>
                <mxCell id="39" value="Capturar imagen" style="shape=process;whiteSpace=wrap;html=1;backgroundOutline=1;fontFamily=Times New Roman;" parent="10" vertex="1">
                    <mxGeometry x="165" y="130" width="120" height="60" as="geometry"/>
                </mxCell>
                <mxCell id="46" value="Capturar imagen" style="shape=process;whiteSpace=wrap;html=1;backgroundOutline=1;fontFamily=Times New Roman;" parent="10" vertex="1">
                    <mxGeometry x="165" y="420" width="120" height="60" as="geometry"/>
                </mxCell>
                <mxCell id="47" style="edgeStyle=none;html=1;exitX=0.5;exitY=1;exitDx=0;exitDy=0;entryX=0.5;entryY=0;entryDx=0;entryDy=0;fontFamily=Times New Roman;" parent="10" source="17" target="46" edge="1">
                    <mxGeometry relative="1" as="geometry"/>
                </mxCell>
                <mxCell id="111" style="edgeStyle=none;html=1;exitX=1;exitY=0.5;exitDx=0;exitDy=0;entryX=1;entryY=0.5;entryDx=0;entryDy=0;fontFamily=Times New Roman;" edge="1" parent="10" source="10" target="17">
                    <mxGeometry relative="1" as="geometry">
                        <Array as="points">
                            <mxPoint x="422" y="245"/>
                            <mxPoint x="422" y="365"/>
                        </Array>
                    </mxGeometry>
                </mxCell>
                <mxCell id="112" style="edgeStyle=none;html=1;exitX=1;exitY=0.5;exitDx=0;exitDy=0;entryX=1;entryY=0.5;entryDx=0;entryDy=0;fontFamily=Times New Roman;" edge="1" parent="10" source="10" target="12">
                    <mxGeometry relative="1" as="geometry">
                        <Array as="points">
                            <mxPoint x="422" y="245"/>
                            <mxPoint x="422" y="85"/>
                        </Array>
                    </mxGeometry>
                </mxCell>
                <mxCell id="y6sQ975VPuZylFJo2yyB-159" style="edgeStyle=orthogonalEdgeStyle;rounded=1;orthogonalLoop=1;jettySize=auto;html=1;exitX=0;exitY=0.5;exitDx=0;exitDy=0;entryX=1;entryY=0.5;entryDx=0;entryDy=0;endArrow=none;endFill=0;" edge="1" parent="1" source="21" target="10">
                    <mxGeometry relative="1" as="geometry">
                        <Array as="points">
                            <mxPoint x="680" y="530"/>
                            <mxPoint x="680" y="475"/>
                        </Array>
                    </mxGeometry>
                </mxCell>
                <mxCell id="21" value="&lt;div style=&quot;color: rgb(204, 204, 204); font-size: 14px; line-height: 19px;&quot;&gt;&lt;font color=&quot;#c2a54e&quot;&gt;calc_trayectorias&lt;/font&gt;()&lt;/div&gt;" style="shape=document;whiteSpace=wrap;html=1;boundedLbl=1;fontFamily=Times New Roman;labelBackgroundColor=none;" parent="1" vertex="1">
                    <mxGeometry x="700" y="490" width="180" height="80" as="geometry"/>
                </mxCell>
                <mxCell id="22" value="Módulo de Procesamiento (SMD)" style="swimlane;whiteSpace=wrap;html=1;fontFamily=Times New Roman;fillColor=#fad9d5;strokeColor=#ae4132;" parent="1" vertex="1">
                    <mxGeometry x="1140" y="305" width="280" height="515" as="geometry"/>
                </mxCell>
                <mxCell id="56" style="edgeStyle=none;html=1;exitX=0.5;exitY=1;exitDx=0;exitDy=0;entryX=0.5;entryY=0;entryDx=0;entryDy=0;fontFamily=Times New Roman;" parent="22" source="54" target="55" edge="1">
                    <mxGeometry relative="1" as="geometry"/>
                </mxCell>
                <mxCell id="54" value="Lectura de imagen&amp;nbsp;" style="shape=process;whiteSpace=wrap;html=1;backgroundOutline=1;fontFamily=Times New Roman;" parent="22" vertex="1">
                    <mxGeometry x="80" y="50" width="120" height="60" as="geometry"/>
                </mxCell>
                <mxCell id="61" style="edgeStyle=none;html=1;exitX=0.5;exitY=1;exitDx=0;exitDy=0;entryX=0.5;entryY=0;entryDx=0;entryDy=0;fontFamily=Times New Roman;" parent="22" source="55" target="60" edge="1">
                    <mxGeometry relative="1" as="geometry"/>
                </mxCell>
                <mxCell id="55" value="Búsqueda y comparación en base de datos SMD" style="shape=process;whiteSpace=wrap;html=1;backgroundOutline=1;fontFamily=Times New Roman;" parent="22" vertex="1">
                    <mxGeometry x="80" y="140" width="120" height="60" as="geometry"/>
                </mxCell>
                <mxCell id="103" style="edgeStyle=none;html=1;exitX=0.5;exitY=1;exitDx=0;exitDy=0;entryX=0.5;entryY=0;entryDx=0;entryDy=0;fontFamily=Times New Roman;" parent="22" source="60" target="102" edge="1">
                    <mxGeometry relative="1" as="geometry"/>
                </mxCell>
                <mxCell id="60" value="Componente SMD [i] idenfitifcado" style="shape=process;whiteSpace=wrap;html=1;backgroundOutline=1;fontFamily=Times New Roman;" parent="22" vertex="1">
                    <mxGeometry x="80" y="230" width="120" height="60" as="geometry"/>
                </mxCell>
                <mxCell id="104" style="edgeStyle=none;html=1;exitX=0.5;exitY=1;exitDx=0;exitDy=0;entryX=0.5;entryY=0;entryDx=0;entryDy=0;fontFamily=Times New Roman;" parent="22" source="102" target="113" edge="1">
                    <mxGeometry relative="1" as="geometry">
                        <mxPoint x="140" y="415" as="targetPoint"/>
                    </mxGeometry>
                </mxCell>
                <mxCell id="105" value="NO" style="edgeLabel;html=1;align=center;verticalAlign=middle;resizable=0;points=[];fontFamily=Times New Roman;" parent="104" vertex="1" connectable="0">
                    <mxGeometry x="-0.6267" relative="1" as="geometry">
                        <mxPoint y="4" as="offset"/>
                    </mxGeometry>
                </mxCell>
                <mxCell id="102" value="¿Error?" style="rhombus;whiteSpace=wrap;html=1;fontFamily=Times New Roman;" parent="22" vertex="1">
                    <mxGeometry x="100" y="310" width="80" height="80" as="geometry"/>
                </mxCell>
                <mxCell id="113" value="Regresa" style="shape=process;whiteSpace=wrap;html=1;backgroundOutline=1;fontFamily=Times New Roman;" vertex="1" parent="22">
                    <mxGeometry x="80" y="420" width="120" height="60" as="geometry"/>
                </mxCell>
                <mxCell id="44" style="edgeStyle=none;html=1;exitX=1;exitY=0.5;exitDx=0;exitDy=0;entryX=0;entryY=0.5;entryDx=0;entryDy=0;fontFamily=Times New Roman;" parent="1" source="39" target="54" edge="1">
                    <mxGeometry relative="1" as="geometry">
                        <mxPoint x="870" y="390" as="targetPoint"/>
                    </mxGeometry>
                </mxCell>
                <mxCell id="59" style="edgeStyle=none;html=1;exitX=0;exitY=0.5;exitDx=0;exitDy=0;entryX=1;entryY=0.5;entryDx=0;entryDy=0;fontFamily=Times New Roman;" parent="1" source="58" target="55" edge="1">
                    <mxGeometry relative="1" as="geometry"/>
                </mxCell>
                <mxCell id="58" value="Base de datos&lt;br&gt;SMD" style="shape=dataStorage;whiteSpace=wrap;html=1;fixedSize=1;fontFamily=Times New Roman;" parent="1" vertex="1">
                    <mxGeometry x="1470" y="435" width="130" height="80" as="geometry"/>
                </mxCell>
                <mxCell id="62" value="Lista de &lt;br&gt;componentes &lt;br&gt;SMD en proyecto" style="shape=dataStorage;whiteSpace=wrap;html=1;fixedSize=1;fontFamily=Times New Roman;" parent="1" vertex="1">
                    <mxGeometry x="1470" y="525" width="130" height="80" as="geometry"/>
                </mxCell>
                <mxCell id="63" style="edgeStyle=none;html=1;exitX=1;exitY=0.5;exitDx=0;exitDy=0;entryX=0;entryY=0.5;entryDx=0;entryDy=0;fontFamily=Times New Roman;" parent="1" source="60" target="62" edge="1">
                    <mxGeometry relative="1" as="geometry"/>
                </mxCell>
                <mxCell id="151" style="edgeStyle=none;html=1;exitX=0.5;exitY=0;exitDx=0;exitDy=0;entryX=0.5;entryY=0;entryDx=0;entryDy=0;fontFamily=Times New Roman;" edge="1" parent="1" source="87" target="88">
                    <mxGeometry relative="1" as="geometry">
                        <Array as="points">
                            <mxPoint x="1050" y="-30"/>
                            <mxPoint x="423" y="-30"/>
                        </Array>
                    </mxGeometry>
                </mxCell>
                <mxCell id="87" value="Mensaje: Verifique que los componentes y la PCB sean los correctos" style="shape=process;whiteSpace=wrap;html=1;backgroundOutline=1;fontFamily=Times New Roman;" parent="1" vertex="1">
                    <mxGeometry x="990" y="70" width="120" height="100" as="geometry"/>
                </mxCell>
                <mxCell id="91" style="edgeStyle=none;html=1;exitX=0.5;exitY=1;exitDx=0;exitDy=0;entryX=0.5;entryY=0;entryDx=0;entryDy=0;fontFamily=Times New Roman;" parent="1" source="88" target="90" edge="1">
                    <mxGeometry relative="1" as="geometry"/>
                </mxCell>
                <mxCell id="88" value="Preguntar a usuario si los componentes están listos" style="shape=process;whiteSpace=wrap;html=1;backgroundOutline=1;fontFamily=Times New Roman;" parent="1" vertex="1">
                    <mxGeometry x="363" width="120" height="60" as="geometry"/>
                </mxCell>
                <mxCell id="92" style="edgeStyle=none;html=1;exitX=0.5;exitY=1;exitDx=0;exitDy=0;entryX=0.5;entryY=0;entryDx=0;entryDy=0;fontFamily=Times New Roman;" parent="1" source="90" target="10" edge="1">
                    <mxGeometry relative="1" as="geometry"/>
                </mxCell>
                <mxCell id="93" value="SI" style="edgeLabel;html=1;align=center;verticalAlign=middle;resizable=0;points=[];fontFamily=Times New Roman;" parent="92" vertex="1" connectable="0">
                    <mxGeometry x="-0.4" y="1" relative="1" as="geometry">
                        <mxPoint x="-1" as="offset"/>
                    </mxGeometry>
                </mxCell>
                <mxCell id="90" value="¿Componentes listos?" style="rhombus;whiteSpace=wrap;html=1;fontFamily=Times New Roman;" parent="1" vertex="1">
                    <mxGeometry x="356" y="110" width="134" height="80" as="geometry"/>
                </mxCell>
                <mxCell id="94" style="edgeStyle=none;html=1;exitX=0;exitY=0.5;exitDx=0;exitDy=0;entryX=0.5;entryY=0;entryDx=0;entryDy=0;fontFamily=Times New Roman;" parent="1" source="90" target="90" edge="1">
                    <mxGeometry relative="1" as="geometry">
                        <Array as="points">
                            <mxPoint x="330" y="150"/>
                            <mxPoint x="330" y="80"/>
                            <mxPoint x="423" y="80"/>
                        </Array>
                    </mxGeometry>
                </mxCell>
                <mxCell id="96" value="NO" style="edgeLabel;html=1;align=center;verticalAlign=middle;resizable=0;points=[];fontFamily=Times New Roman;" parent="94" vertex="1" connectable="0">
                    <mxGeometry x="-0.8719" relative="1" as="geometry">
                        <mxPoint x="2" as="offset"/>
                    </mxGeometry>
                </mxCell>
                <mxCell id="152" style="edgeStyle=none;html=1;exitX=0.5;exitY=0;exitDx=0;exitDy=0;entryX=0.5;entryY=1;entryDx=0;entryDy=0;fontFamily=Times New Roman;" edge="1" parent="1" source="98" target="87">
                    <mxGeometry relative="1" as="geometry"/>
                </mxCell>
                <mxCell id="98" value="Mensaje: Error en la verificación de componentes SMD" style="shape=process;whiteSpace=wrap;html=1;backgroundOutline=1;fontFamily=Times New Roman;" parent="1" vertex="1">
                    <mxGeometry x="990" y="625" width="120" height="60" as="geometry"/>
                </mxCell>
                <mxCell id="107" style="edgeStyle=none;html=1;exitX=0;exitY=0.5;exitDx=0;exitDy=0;entryX=1;entryY=0.5;entryDx=0;entryDy=0;fillColor=#a20025;strokeColor=#6F0000;fontFamily=Times New Roman;" parent="1" source="102" target="98" edge="1">
                    <mxGeometry relative="1" as="geometry"/>
                </mxCell>
                <mxCell id="108" value="SI" style="edgeLabel;html=1;align=center;verticalAlign=middle;resizable=0;points=[];fontFamily=Times New Roman;" parent="107" vertex="1" connectable="0">
                    <mxGeometry x="-0.7707" y="-1" relative="1" as="geometry">
                        <mxPoint as="offset"/>
                    </mxGeometry>
                </mxCell>
                <mxCell id="131" value="Módulo de Procesamiento (PCB)" style="swimlane;whiteSpace=wrap;html=1;fontFamily=Times New Roman;fillColor=#fad9d5;strokeColor=#ae4132;" vertex="1" parent="1">
                    <mxGeometry x="720" y="605" width="200" height="505" as="geometry"/>
                </mxCell>
                <mxCell id="141" style="edgeStyle=none;html=1;exitX=0;exitY=0.5;exitDx=0;exitDy=0;entryX=0.558;entryY=0;entryDx=0;entryDy=0;entryPerimeter=0;fontFamily=Times New Roman;" edge="1" parent="131">
                    <mxGeometry relative="1" as="geometry">
                        <mxPoint x="232.95999999999958" y="80" as="targetPoint"/>
                        <Array as="points">
                            <mxPoint x="122" y="480"/>
                            <mxPoint x="122" y="50"/>
                            <mxPoint x="232" y="50"/>
                        </Array>
                    </mxGeometry>
                </mxCell>
                <mxCell id="117" value="Lectura de imagen PCB" style="shape=process;whiteSpace=wrap;html=1;backgroundOutline=1;fontFamily=Times New Roman;" vertex="1" parent="131">
                    <mxGeometry x="37.39" y="45" width="120" height="60" as="geometry"/>
                </mxCell>
                <mxCell id="119" value="Comparación con archivo *.brd" style="shape=process;whiteSpace=wrap;html=1;backgroundOutline=1;fontFamily=Times New Roman;" vertex="1" parent="131">
                    <mxGeometry x="37.39" y="130" width="120" height="60" as="geometry"/>
                </mxCell>
                <mxCell id="116" style="edgeStyle=none;html=1;exitX=0.5;exitY=1;exitDx=0;exitDy=0;entryX=0.5;entryY=0;entryDx=0;entryDy=0;fontFamily=Times New Roman;" edge="1" parent="131" source="117" target="119">
                    <mxGeometry relative="1" as="geometry"/>
                </mxCell>
                <mxCell id="121" value="Empalmado de imagen con PCB deseada" style="shape=process;whiteSpace=wrap;html=1;backgroundOutline=1;fontFamily=Times New Roman;" vertex="1" parent="131">
                    <mxGeometry x="37.39" y="211" width="120" height="60" as="geometry"/>
                </mxCell>
                <mxCell id="118" style="edgeStyle=none;html=1;exitX=0.5;exitY=1;exitDx=0;exitDy=0;entryX=0.5;entryY=0;entryDx=0;entryDy=0;fontFamily=Times New Roman;" edge="1" parent="131" source="119" target="121">
                    <mxGeometry relative="1" as="geometry">
                        <mxPoint x="-1139.61" y="-69" as="targetPoint"/>
                    </mxGeometry>
                </mxCell>
                <mxCell id="122" value="¿Error?" style="rhombus;whiteSpace=wrap;html=1;fontFamily=Times New Roman;" vertex="1" parent="131">
                    <mxGeometry x="57.39" y="300" width="80" height="80" as="geometry"/>
                </mxCell>
                <mxCell id="120" style="edgeStyle=none;html=1;exitX=0.5;exitY=1;exitDx=0;exitDy=0;entryX=0.5;entryY=0;entryDx=0;entryDy=0;fontFamily=Times New Roman;" edge="1" parent="131" source="121" target="122">
                    <mxGeometry relative="1" as="geometry"/>
                </mxCell>
                <mxCell id="123" value="Continúa" style="shape=process;whiteSpace=wrap;html=1;backgroundOutline=1;fontFamily=Times New Roman;" vertex="1" parent="131">
                    <mxGeometry x="37.39" y="420" width="120" height="60" as="geometry"/>
                </mxCell>
                <mxCell id="124" style="edgeStyle=none;html=1;exitX=0.5;exitY=1;exitDx=0;exitDy=0;entryX=0.5;entryY=0;entryDx=0;entryDy=0;fontFamily=Times New Roman;" edge="1" parent="131" source="122" target="123">
                    <mxGeometry relative="1" as="geometry">
                        <mxPoint x="-1139.61" y="131.00000000000045" as="targetPoint"/>
                    </mxGeometry>
                </mxCell>
                <mxCell id="125" value="NO" style="edgeLabel;html=1;align=center;verticalAlign=middle;resizable=0;points=[];fontFamily=Times New Roman;" vertex="1" connectable="0" parent="124">
                    <mxGeometry x="-0.3776" y="1" relative="1" as="geometry">
                        <mxPoint x="-1" y="-2" as="offset"/>
                    </mxGeometry>
                </mxCell>
                <mxCell id="126" value="Desfase entre &lt;br&gt;PCB real y &lt;br&gt;deseada" style="shape=dataStorage;whiteSpace=wrap;html=1;fixedSize=1;fontFamily=Times New Roman;" vertex="1" parent="1">
                    <mxGeometry x="530" y="806" width="130" height="80" as="geometry"/>
                </mxCell>
                <mxCell id="153" style="edgeStyle=none;html=1;exitX=0.5;exitY=0;exitDx=0;exitDy=0;entryX=0.5;entryY=1;entryDx=0;entryDy=0;fontFamily=Times New Roman;" edge="1" parent="1" source="130" target="87">
                    <mxGeometry relative="1" as="geometry">
                        <Array as="points">
                            <mxPoint x="1050" y="850"/>
                            <mxPoint x="960" y="850"/>
                            <mxPoint x="960" y="240"/>
                            <mxPoint x="1050" y="240"/>
                        </Array>
                    </mxGeometry>
                </mxCell>
                <mxCell id="130" value="Mensaje: Error en la verificación de pistas de la PCB" style="shape=process;whiteSpace=wrap;html=1;backgroundOutline=1;fontFamily=Times New Roman;" vertex="1" parent="1">
                    <mxGeometry x="990" y="915" width="120" height="60" as="geometry"/>
                </mxCell>
                <mxCell id="147" style="edgeStyle=none;html=1;exitX=1;exitY=0.5;exitDx=0;exitDy=0;entryX=0;entryY=0.5;entryDx=0;entryDy=0;fontFamily=Times New Roman;" edge="1" parent="1" source="46" target="117">
                    <mxGeometry relative="1" as="geometry"/>
                </mxCell>
                <mxCell id="148" style="edgeStyle=none;html=1;exitX=0;exitY=0.5;exitDx=0;exitDy=0;entryX=1;entryY=0.5;entryDx=0;entryDy=0;fontFamily=Times New Roman;" edge="1" parent="1" source="121" target="126">
                    <mxGeometry relative="1" as="geometry"/>
                </mxCell>
                <mxCell id="149" style="edgeStyle=none;html=1;exitX=1;exitY=0.5;exitDx=0;exitDy=0;entryX=0;entryY=0.5;entryDx=0;entryDy=0;fontFamily=Times New Roman;fillColor=#a20025;strokeColor=#6F0000;" edge="1" parent="1" source="122" target="130">
                    <mxGeometry relative="1" as="geometry"/>
                </mxCell>
                <mxCell id="150" value="SI" style="edgeLabel;html=1;align=center;verticalAlign=middle;resizable=0;points=[];fontFamily=Times New Roman;" vertex="1" connectable="0" parent="149">
                    <mxGeometry x="-0.1899" y="-1" relative="1" as="geometry">
                        <mxPoint x="-25" y="-1" as="offset"/>
                    </mxGeometry>
                </mxCell>
                <mxCell id="y6sQ975VPuZylFJo2yyB-153" value="FIN" style="ellipse;whiteSpace=wrap;html=1;aspect=fixed;fontFamily=Times New Roman;" vertex="1" parent="1">
                    <mxGeometry x="777.39" y="1140" width="80" height="80" as="geometry"/>
                </mxCell>
                <mxCell id="y6sQ975VPuZylFJo2yyB-156" style="edgeStyle=orthogonalEdgeStyle;rounded=0;orthogonalLoop=1;jettySize=auto;html=1;exitX=0.5;exitY=1;exitDx=0;exitDy=0;entryX=0.5;entryY=0;entryDx=0;entryDy=0;" edge="1" parent="1" source="y6sQ975VPuZylFJo2yyB-155" target="7">
                    <mxGeometry relative="1" as="geometry"/>
                </mxCell>
                <mxCell id="y6sQ975VPuZylFJo2yyB-155" value="INICIO" style="ellipse;whiteSpace=wrap;html=1;aspect=fixed;fontFamily=Times New Roman;" vertex="1" parent="1">
                    <mxGeometry x="383" y="-310" width="80" height="80" as="geometry"/>
                </mxCell>
                <mxCell id="y6sQ975VPuZylFJo2yyB-157" style="edgeStyle=orthogonalEdgeStyle;rounded=1;orthogonalLoop=1;jettySize=auto;html=1;exitX=0.5;exitY=1;exitDx=0;exitDy=0;entryX=0.5;entryY=0;entryDx=0;entryDy=0;" edge="1" parent="1" source="113" target="33">
                    <mxGeometry relative="1" as="geometry">
                        <mxPoint x="1180" y="410" as="targetPoint"/>
                        <Array as="points">
                            <mxPoint x="1280" y="810"/>
                            <mxPoint x="1190" y="810"/>
                            <mxPoint x="1190" y="430"/>
                            <mxPoint x="423" y="430"/>
                        </Array>
                    </mxGeometry>
                </mxCell>
                <mxCell id="y6sQ975VPuZylFJo2yyB-158" style="edgeStyle=orthogonalEdgeStyle;rounded=1;orthogonalLoop=1;jettySize=auto;html=1;exitX=0.5;exitY=1;exitDx=0;exitDy=0;entryX=0.5;entryY=0;entryDx=0;entryDy=0;" edge="1" parent="1" source="123" target="y6sQ975VPuZylFJo2yyB-153">
                    <mxGeometry relative="1" as="geometry"/>
                </mxCell>
            </root>
        </mxGraphModel>
    </diagram>
</mxfile>